<?xml version="1.0" encoding="iso-8859-1"?>
<!-- Generator: Adobe Illustrator 19.0.0, SVG Export Plug-In . SVG Version: 6.00 Build 0)  -->
<svg version="1.1" id="Capa_1" xmlns="http://www.w3.org/2000/svg" xmlns:xlink="http://www.w3.org/1999/xlink" x="0px" y="0px"
	 viewBox="0 0 511.999 511.999" style="enable-background:new 0 0 511.999 511.999;" xml:space="preserve">
<g>
	<g>
		<path d="M150.968,281.785h-26.578c-4.142,0-7.5,3.357-7.5,7.5v105.31c0,4.143,3.358,7.5,7.5,7.5h26.578c4.142,0,7.5-3.357,7.5-7.5
			v-105.31C158.467,285.142,155.109,281.785,150.968,281.785z M143.468,387.094h-11.579v-90.31h11.579V387.094z"/>
	</g>
</g>
<g>
	<g>
		<path d="M361.523,357.938c-3.167,1.717-9.799,4.597-18.635,4.597c-12.715,0-21.594-8.475-21.594-20.608
			c0-19.74,21.468-25.921,40.526-15.799c4.979,2.562,10.929-1.06,10.929-6.67v-28.269c0-3.138-1.841-6.135-5.839-7.332
			c-3.224-0.976-13.035-3.945-25.873-3.945c-62.694,0-82.48,72.743-44.33,107.55c11.667,10.644,27.411,16.504,44.332,16.504
			c12.108,0,21.541-2.691,25.569-3.841l0.669-0.19c3.236-0.908,5.473-3.859,5.473-7.221V364.45
			C372.749,358.954,366.889,355.03,361.523,357.938z M357.75,386.961c-4.153,0.986-9.905,2.006-16.711,2.006
			c-24.167,0-48.633-16.157-48.633-47.04c0-31.689,27.77-54.029,65.346-45.035v11.47h-0.001c-4.784-1.341-9.793-2.032-14.86-2.032
			c-21.204,0-36.594,14.971-36.594,35.598c0,20.633,15.389,35.608,36.594,35.608c5.002,0,10.053-0.703,14.86-2.037V386.961z"/>
	</g>
</g>
<g>
	<g>
		<path d="M84.386,326.106c4.986,2.605,10.974-1.02,10.974-6.647v-28.27c0-3.314-2.176-6.236-5.352-7.186l-0.44-0.134
			c-25.542-7.764-52.668-4.516-71.335,13.626c-24.719,24.027-24.255,66.814,1.094,89.965c16.031,14.64,40.177,21.221,69.992,12.64
			l0.59-0.17c3.225-0.916,5.45-3.861,5.45-7.214V364.45c0-2.649-1.397-5.102-3.676-6.452c-6.759-4.008-9.335,4.537-26.148,4.537
			c-12.733,0-21.626-8.475-21.626-20.608C43.908,321.698,66.157,316.286,84.386,326.106z M80.358,375.515v11.449
			c-35.096,8.287-65.311-11.002-65.311-45.036c0.001-31.397,27.342-54.057,65.311-45.031v11.454
			c-29.429-8.239-51.451,9.002-51.451,33.578C28.907,366.626,51.012,383.688,80.358,375.515z"/>
	</g>
</g>
<g>
	<g>
		<path d="M236.33,323.855c-8.363-2.664-12.069-3.707-13.818-4.942c6.049-3.064,20.564-0.391,27.065,1.484
			c4.815,1.46,9.677-2.152,9.677-7.177v-22.483c0-3.377-2.257-6.338-5.514-7.232c-0.132-0.036-13.369-3.625-27.892-3.625
			c-27.957,0-46.74,16.246-46.74,40.429c0,12.646,5.618,29.497,32.318,37.942c5.471,1.78,10.89,3.246,12.349,5.19
			c0,0.009,0,0.018,0,0.024c-0.356,0.337-2.847,2.313-11.802,2.313c-9.502,0-18.752-2.486-22.234-3.423
			c-6.785-1.823-10.363,2.889-10.363,7v24.236c0,3.545,2.482,6.606,5.951,7.338c0.144,0.031,14.572,3.038,30.233,3.038
			c23.572,0,51.099-11.22,51.099-42.841C266.659,343.823,255.319,329.889,236.33,323.855z M215.558,388.966
			c-8.15,0-16.034-0.925-21.184-1.695v-8.394c18.455,3.716,44.397,3.285,44.397-15.437c0.001-8.128-5.732-14.058-17.039-17.628
			c-9.853-3.273-27.625-7.388-27.625-25.504c0-16.178,12.675-30.686,50.146-23.549v7.096c-4.027-0.727-8.792-1.35-13.279-1.35
			c-17.646,0-23.935,8.334-23.935,16.133c0,13.182,14.141,16.133,24.739,19.509c12.82,4.075,19.879,12.235,19.879,22.978
			C251.658,386.958,224.027,388.966,215.558,388.966z"/>
	</g>
</g>
<g>
	<g>
		<path d="M18.368,178.456c-10.102,0-18.319,8.202-18.319,18.282V219.4c0,10.099,8.218,18.313,18.319,18.313
			c10.1,0,18.315-8.216,18.315-18.313v-22.662C36.684,186.658,28.467,178.456,18.368,178.456z M21.684,219.4
			c0,4.378-6.636,4.38-6.636,0v-22.662c0-1.811,1.489-3.283,3.32-3.283c1.829,0,3.316,1.473,3.316,3.283V219.4z"/>
	</g>
</g>
<g>
	<g>
		<path d="M77.791,148.698c-10.102-0.001-18.319,8.203-18.319,18.286v52.417c0,10.099,8.218,18.313,18.319,18.313
			c10.1,0,18.316-8.216,18.316-18.313v-52.417C96.107,156.901,87.891,148.698,77.791,148.698z M81.108,219.401
			c0,1.827-1.488,3.314-3.317,3.314c-1.831,0-3.32-1.487-3.32-3.314v-52.417c0-1.813,1.489-3.287,3.32-3.287
			c1.829-0.001,3.317,1.474,3.317,3.287V219.401z"/>
	</g>
</g>
<g>
	<g>
		<path d="M196.634,148.697c-10.1,0-18.315,8.203-18.315,18.286V219.4c0,10.099,8.217,18.313,18.315,18.313
			c10.102,0.001,18.319-8.215,18.319-18.313v-52.417C214.953,156.9,206.736,148.697,196.634,148.697z M199.953,219.4
			c0,1.827-1.489,3.314-3.32,3.314c-1.828,0.001-3.316-1.486-3.316-3.314v-52.417c0-1.813,1.488-3.287,3.316-3.287
			c1.831,0,3.32,1.475,3.32,3.287V219.4z"/>
	</g>
</g>
<g>
	<g>
		<path d="M256.055,178.456c-10.099,0-18.314,8.202-18.314,18.282V219.4c0,10.099,8.216,18.313,18.314,18.313
			c10.066,0.001,18.254-8.215,18.254-18.313v-22.662C274.309,186.658,266.12,178.456,256.055,178.456z M259.31,219.4
			c0,1.827-1.46,3.314-3.255,3.314c-1.828,0-3.315-1.487-3.315-3.314v-22.662c0-4.268,6.57-4.396,6.57,0V219.4z"/>
	</g>
</g>
<g>
	<g>
		<path d="M315.473,148.697c-10.082,0-18.282,8.203-18.282,18.286V219.4c0,10.099,8.202,18.313,18.282,18.313
			s18.282-8.216,18.282-18.313v-52.417C333.756,156.901,325.554,148.697,315.473,148.697z M318.757,219.4
			c0,1.827-1.473,3.314-3.283,3.314s-3.283-1.487-3.283-3.314v-52.417c0-1.813,1.473-3.287,3.283-3.287s3.283,1.475,3.283,3.287
			V219.4z"/>
	</g>
</g>
<g>
	<g>
		<path d="M374.938,107.999c-10.083,0-18.285,8.199-18.285,18.277v114.668c0,10.099,8.203,18.313,18.285,18.313
			c10.081,0,18.282-8.216,18.282-18.314V126.277C393.22,116.198,385.018,107.999,374.938,107.999z M378.22,240.945
			c0,4.378-6.569,4.38-6.569-0.001V126.277c0-4.331,6.569-4.333,6.569,0V240.945z"/>
	</g>
</g>
<g>
	<g>
		<path d="M434.253,148.697c-10.083,0-18.285,8.203-18.285,18.286V219.4c0,10.099,8.203,18.313,18.285,18.313
			c10.157,0,18.419-8.216,18.419-18.313v-52.417C452.672,156.901,444.409,148.697,434.253,148.697z M437.672,219.4
			c0,1.858-1.502,3.314-3.42,3.314c-1.812,0-3.286-1.487-3.286-3.314v-52.417c0-1.813,1.474-3.287,3.286-3.287
			c1.917,0,3.42,1.444,3.42,3.287V219.4z"/>
	</g>
</g>
<g>
	<g>
		<path d="M493.716,178.456c-10.09,0-18.297,8.202-18.297,18.282V219.4c0,10.099,8.208,18.313,18.297,18.313
			c10.082,0,18.282-8.216,18.282-18.313v-22.662C512,186.658,503.798,178.456,493.716,178.456z M497,219.4
			c0,4.388-6.582,4.371-6.582,0v-22.662c0-4.328,6.582-4.349,6.582,0V219.4z"/>
	</g>
</g>
<g>
	<g>
		<path d="M148.033,175.956c4.142,0,7.5-3.357,7.5-7.5v-42.181c0-10.079-8.219-18.277-18.32-18.277
			c-10.102,0-18.319,8.199-18.319,18.277v114.668c0,10.099,8.218,18.313,18.319,18.313c10.103,0,18.32-8.216,18.32-18.313v-37.489
			c0-4.143-3.358-7.5-7.5-7.5s-7.5,3.357-7.5,7.5v37.489c0,1.827-1.49,3.314-3.321,3.314s-3.32-1.487-3.32-3.314V126.277
			c0-1.808,1.489-3.278,3.32-3.278c1.832,0,3.321,1.471,3.321,3.278v42.181C140.533,172.599,143.891,175.956,148.033,175.956z"/>
	</g>
</g>
<g>
	<g>
		<path d="M468.56,282.808c-3.96-1.212-8.154,1.017-9.365,4.979c-1.211,3.961,1.017,8.154,4.979,9.365
			c49.791,15.229,41.434,91.816-15.318,91.816c-56.776,0-65.047-76.629-15.296-91.823c3.962-1.21,6.192-5.402,4.982-9.363
			c-1.21-3.962-5.402-6.191-9.363-4.982c-25.984,7.936-43.441,31.697-43.441,59.128c0,58.953,71.345,80.94,108.391,43.868
			C525.763,354.138,514.233,296.776,468.56,282.808z"/>
	</g>
</g>
<g>
	<g>
		<path d="M448.855,306.728c-19.612,0-34.975,15.46-34.975,35.199c0,19.749,15.362,35.221,34.975,35.221
			c19.62,0,34.989-15.471,34.989-35.221C483.844,322.19,468.474,306.728,448.855,306.728z M448.855,362.148
			c-11.388,0-19.975-8.693-19.975-20.221c0-11.516,8.587-20.199,19.975-20.199c11.396,0,19.989,8.684,19.989,20.199
			C468.844,353.455,460.251,362.148,448.855,362.148z"/>
	</g>
</g>
<g>
</g>
<g>
</g>
<g>
</g>
<g>
</g>
<g>
</g>
<g>
</g>
<g>
</g>
<g>
</g>
<g>
</g>
<g>
</g>
<g>
</g>
<g>
</g>
<g>
</g>
<g>
</g>
<g>
</g>
</svg>
